<?xml version="1.0" encoding="iso-8859-1"?>
<!-- Generator: Adobe Illustrator 19.0.0, SVG Export Plug-In . SVG Version: 6.00 Build 0)  -->
<svg version="1.1" id="Capa_1" xmlns="http://www.w3.org/2000/svg" xmlns:xlink="http://www.w3.org/1999/xlink" x="0px" y="0px"
	 viewBox="0 0 512 512" style="enable-background:new 0 0 512 512;" xml:space="preserve">
<g>
	<g>
		<path d="M441.484,131.875c-7.383-3.366-15.051-5.94-22.895-7.748C405.811,53.398,344.067,0,271,0
			c-72.249,0-133.054,52.072-147.003,121.051C56.03,119.355,0,173.766,0,241c0,66.354,54.669,121,121,121v15c0,8.284,6.716,15,15,15
			s15-6.716,15-15v-15h30v45c0,8.284,6.716,15,15,15s15-6.716,15-15v-45h30v15c0,8.284,6.716,15,15,15s15-6.716,15-15v-15h30v45
			c0,8.284,6.716,15,15,15s15-6.716,15-15v-45h30v15c0,8.284,6.716,15,15,15s15-6.716,15-15v-15c66.233,0,121-54.534,121-121
			C512,194.239,484.32,151.405,441.484,131.875z M391,332H121c-49.327,0-91-41.673-91-91c0-70.006,77.849-113.126,137.475-77.09
			c7.093,4.285,16.312,2.01,20.597-5.08c4.285-7.09,2.011-16.311-5.079-20.596c-9.177-5.546-19.028-9.798-29.275-12.696
			C165.548,71.014,214.706,30,271,30c54.721,0,102.747,38.808,116.225,91.089c-5.469,0.176-10.958,0.694-16.442,1.597
			c-26.584,4.379-51.915,16.896-75.29,37.203c-6.254,5.433-6.92,14.907-1.486,21.161c5.432,6.254,14.907,6.92,21.16,1.486
			c33.108-28.763,74.82-41.169,113.872-23.365C461.212,173.84,482,205.959,482,241C482,290.327,440.327,332,391,332z"/>
	</g>
</g>
<g>
	<g>
		<path d="M136,422c-8.284,0-15,6.716-15,15v60c0,8.284,6.716,15,15,15s15-6.716,15-15v-60C151,428.716,144.284,422,136,422z"/>
	</g>
</g>
<g>
	<g>
		<path d="M196,452c-8.284,0-15,6.716-15,15v30c0,8.284,6.716,15,15,15s15-6.716,15-15v-30C211,458.716,204.284,452,196,452z"/>
	</g>
</g>
<g>
	<g>
		<path d="M256,422c-8.284,0-15,6.716-15,15v60c0,8.284,6.716,15,15,15s15-6.716,15-15v-60C271,428.716,264.284,422,256,422z"/>
	</g>
</g>
<g>
	<g>
		<path d="M376,422c-8.284,0-15,6.716-15,15v60c0,8.284,6.716,15,15,15s15-6.716,15-15v-60C391,428.716,384.284,422,376,422z"/>
	</g>
</g>
<g>
	<g>
		<path d="M316,452c-8.284,0-15,6.716-15,15v30c0,8.284,6.716,15,15,15s15-6.716,15-15v-30C331,458.716,324.284,452,316,452z"/>
	</g>
</g>
<g>
</g>
<g>
</g>
<g>
</g>
<g>
</g>
<g>
</g>
<g>
</g>
<g>
</g>
<g>
</g>
<g>
</g>
<g>
</g>
<g>
</g>
<g>
</g>
<g>
</g>
<g>
</g>
<g>
</g>
</svg>
